# xmcd
#
# Track frame offsets:
#	150
#	16628
#	26018
#	35573
#	53198
#	62738
#	78878
#	85471
#	96804
#	104754
#	108159
#	139622
#	160007
#	165122
#	179440
#	196728
#	210243
#	224111
#	245539
#
# Disc length: 3431 seconds
#
# Revision: 1
# Processed by: cddbd v1.5.2PL0 Copyright (c) Steve Scherf et al.
# Submitted via: audiograbber 1.83.01
#
DISCID=f50d6513
DTITLE=Vokal.sommer.akademie - Abschlussmesse James Moore
DYEAR=2014
DGENRE=Gospel
TTITLE0=Rejoice and He's got the whole world
TTITLE1=Right up here
TTITLE2=Glory, Glory
TTITLE3=Spirit of God
TTITLE4=Alleluja
TTITLE5=We are climbing Jacob's ladder
TTITLE6=Heilig, heilig, heilig (Schubertmesse)
TTITLE7=Vater unser
TTITLE8=Lamb of God (He is Lord)
TTITLE9=Right up here (2)
TTITLE10=Taste and see and I will be with you
TTITLE11=Taste and see (2)
TTITLE12=Right up here (3)
TTITLE13=An Irish Blessing
TTITLE14=A new song
TTITLE15=Only believe
TTITLE16=Rejoice (2)
TTITLE17=I will be with you (2)
TTITLE18=Right up here (4)
EXTD=
EXTT0=
EXTT1=
EXTT2=
EXTT3=
EXTT4=
EXTT5=
EXTT6=
EXTT7=
EXTT8=
EXTT9=
EXTT10=
EXTT11=
EXTT12=
EXTT13=
EXTT14=
EXTT15=
EXTT16=
EXTT17=
EXTT18=
PLAYORDER=
